#!OML:ASF H:\Dans Jumps\Project 1\Capture day 1\Session 1\subject.ASF
:FULLY-SPECIFIED
:DEGREES
352
root 0.191449 17.2406 4.45352 2.30293 3.18059 -2.03197
lowerback 5.06731 0.962757 -0.00150759
upperback 4.28864 1.26923 1.97215
thorax 1.52553 0.609106 1.98102
lowerneck -11.0418 -1.00889 -1.57006
upperneck 34.3666 -1.55227 1.55875
head 13.4293 -0.648412 0.676761
rclavicle -1.90833e-014 -2.18663e-014
rhumerus -12.2162 -10.2777 -84.5385
rradius 34.192
rwrist 28.0632
rhand -25.5669 -26.3974
rfingers 7.12502
rthumb 0.964008 -56.375
lclavicle -1.90833e-014 -2.18663e-014
lhumerus -20.7168 19.145 81.3314
lradius 9.02001
lwrist -6.78159
lhand -27.4708 -8.60899
lfingers 7.12502
lthumb -0.874848 21.369
rfemur -24.9832 -2.32443 22.0875
rtibia 33.4046
rfoot -9.79565 0.0100779
rtoes 20.6294
lfemur -24.6291 3.13757 -15.8635
ltibia 33.117
lfoot -8.07438 3.63996
ltoes -3.94413
353
root 0.187406 17.2501 4.49241 2.28366 3.38216 -2.09058
lowerback 4.96225 0.915998 0.0614789
upperback 4.26765 1.20816 2.02048
thorax 1.56474 0.579343 1.99927
lowerneck -11.0927 -1.02868 -1.61088
upperneck 34.4328 -1.5741 1.5695
head 13.4706 -0.660999 0.685425
rclavicle -1.2921e-015 3.97569e-015
rhumerus -12.0208 -10.4019 -84.5678
rradius 33.9605
rwrist 28.2729
rhand -25.6008 -26.494
rfingers 7.12502
rthumb 0.931264 -56.4717
lclavicle -1.2921e-015 3.97569e-015
lhumerus -20.859 19.0684 81.2536
lradius 8.61901
lwrist -7.05689
lhand -27.6313 -8.32934
lfingers 7.12502
lthumb -1.02978 21.6479
rfemur -24.6739 -2.41108 22.1485
rtibia 33.168
rfoot -9.82954 -0.0666988
rtoes 20.7159
lfemur -24.4157 3.23388 -15.806
ltibia 32.937
lfoot -8.19401 3.38946
ltoes -4.00186
354
root 0.183898 17.2598 4.53094 2.27098 3.57105 -2.13781
lowerback 4.85131 0.874446 0.121844
upperback 4.23879 1.15389 2.05593
thorax 1.59906 0.553152 2.00532
lowerneck -11.1256 -1.05234 -1.64083
upperneck 34.5009 -1.60636 1.58512
head 13.5091 -0.676184 0.692655
rclavicle -8.94531e-016 -1.86858e-014
rhumerus -11.8459 -10.5724 -84.6135
rradius 33.7098
rwrist 28.4786
rhand -25.6478 -26.5857
rfingers 7.12502
rthumb 0.885948 -56.5636
lclavicle -8.94531e-016 -1.86858e-014
lhumerus -21.0063 18.9812 81.1685
lradius 8.26422
lwrist -7.23434
lhand -27.7452 -8.06892
lfingers 7.12502
lthumb -1.13983 21.9078
rfemur -24.378 -2.4905 22.199
rtibia 32.9424
rfoot -9.87373 -0.153831
rtoes 20.7585
lfemur -24.2005 3.33411 -15.7593
ltibia 32.7461
lfoot -8.31389 3.14895
ltoes -4.06953
355
root 0.181012 17.2698 4.569 2.26442 3.74348 -2.1749
lowerback 4.73632 0.838734 0.17986
upperback 4.20644 1.10722 2.08051
thorax 1.63192 0.530875 2.00111
lowerneck -11.1633 -1.07838 -1.6564
upperneck 34.5789 -1.6456 1.5996
head 13.5532 -0.692656 0.695914
rclavicle -4.57205e-015 3.57812e-015
rhumerus -11.6839 -10.7916 -84.6743
rradius 33.4399
rwrist 28.6859
rhand -25.6988 -26.666
rfingers 7.12502
rthumb 0.836645 -56.6441
lclavicle -4.57205e-015 3.57812e-015
lhumerus -21.162 18.8883 81.0805
lradius 7.96902
lwrist -7.33154
lhand -27.8104 -7.80898
lfingers 7.12502
lthumb -1.20282 22.1674
rfemur -24.0941 -2.55775 22.2407
rtibia 32.722
rfoot -9.92246 -0.25313
rtoes 20.73
lfemur -23.9781 3.43182 -15.7218
ltibia 32.5366
lfoot -8.42892 2.92978
ltoes -4.15252
356
root 0.179017 17.2808 4.60686 2.26436 3.90145 -2.18577
lowerback 4.61388 0.807267 0.220841
upperback 4.17135 1.06558 2.09157
thorax 1.66583 0.510898 1.99233
lowerneck -11.199 -1.1074 -1.66865
upperneck 34.6619 -1.69173 1.61817
head 13.5993 -0.711157 0.69923
rclavicle -2.68359e-015 -6.36111e-015
rhumerus -11.542 -11.044 -84.7455
rradius 33.1617
rwrist 28.8829
rhand -25.7518 -26.7309
rfingers 7.12502
rthumb 0.785426 -56.7092
lclavicle -2.68359e-015 -6.36111e-015
lhumerus -21.3305 18.7941 80.9912
lradius 7.72156
lwrist -7.39696
lhand -27.8592 -7.68246
lfingers 7.12502
lthumb -1.24993 22.2936
rfemur -23.8165 -2.61767 22.2535
rtibia 32.5005
rfoot -9.97282 -0.355768
rtoes 20.6691
lfemur -23.7424 3.51512 -15.7127
ltibia 32.3055
lfoot -8.5378 2.74382
ltoes -4.24662
357
root 0.177975 17.2924 4.64425 2.27151 4.05023 -2.19626
lowerback 4.48738 0.782273 0.27382
upperback 4.13191 1.03286 2.09415
thorax 1.69756 0.495805 1.9677
lowerneck -11.2308 -1.14191 -1.67124
upperneck 34.7445 -1.75159 1.64542
head 13.6448 -0.733199 0.702288
rclavicle -3.27995e-015 -2.26615e-014
rhumerus -11.4265 -11.3469 -84.8216
rradius 32.8803
rwrist 29.08
rhand -25.7712 -26.7777
rfingers 7.12502
rthumb 0.766746 -56.7561
lclavicle -3.27995e-015 -2.26615e-014
lhumerus -21.5 18.6873 80.9094
lradius 7.51352
lwrist -7.46278
lhand -27.8735 -7.63138
lfingers 7.12502
lthumb -1.2637 22.3446
rfemur -23.5428 -2.66455 22.2636
rtibia 32.2707
rfoot -10.0204 -0.463061
rtoes 20.6045
lfemur -23.5008 3.58199 -15.704
ltibia 32.0557
lfoot -8.63776 2.58807
ltoes -4.34682
358
root 0.177909 17.3046 4.68114 2.28332 4.1845 -2.2002
lowerback 4.36166 0.760291 0.328743
upperback 4.08962 1.00416 2.09094
thorax 1.7259 0.482862 1.93577
lowerneck -11.2645 -1.17671 -1.67647
upperneck 34.8262 -1.81297 1.67736
head 13.6906 -0.755611 0.707428
rclavicle -1.8487e-014 -1.19271e-014
rhumerus -11.3346 -11.6584 -84.9015
rradius 32.5996
rwrist 29.2593
rhand -25.7669 -26.8177
rfingers 7.12502
rthumb 0.770902 -56.796
lclavicle -1.8487e-014 -1.19271e-014
lhumerus -21.6852 18.5854 80.8306
lradius 7.35857
lwrist -7.55241
lhand -27.8583 -7.62481
lfingers 7.12502
lthumb -1.24903 22.3513
rfemur -23.2699 -2.68709 22.2627
rtibia 32.029
rfoot -10.0609 -0.577519
rtoes 20.5533
lfemur -23.252 3.63311 -15.7026
ltibia 31.7897
lfoot -8.72436 2.46475
ltoes -4.45498
359
root 0.17881 17.3172 4.71792 2.29606 4.30691 -2.20732
lowerback 4.2329 0.740528 0.393196
upperback 4.04718 0.978479 2.08662
thorax 1.75583 0.471652 1.89723
lowerneck -11.2893 -1.2135 -1.69073
upperneck 34.8944 -1.8781 1.71814
head 13.7288 -0.779746 0.717078
rclavicle 2.38542e-015 -4.77083e-015
rhumerus -11.2681 -11.9748 -84.9839
rradius 32.3269
rwrist 29.4238
rhand -25.7373 -26.867
rfingers 7.12502
rthumb 0.799505 -56.8453
lclavicle 2.38542e-015 -4.77083e-015
lhumerus -21.8831 18.4892 80.7565
lradius 7.26104
lwrist -7.6637
lhand -27.7972 -7.6254
lfingers 7.12502
lthumb -1.19008 22.351
rfemur -22.9899 -2.68449 22.2607
rtibia 31.7706
rfoot -10.0927 -0.700239
rtoes 20.5354
lfemur -22.9954 3.66996 -15.698
ltibia 31.5135
lfoot -8.79895 2.36838
ltoes -4.56987
360
root 0.180705 17.3301 4.7542 2.31003 4.42208 -2.21864
lowerback 4.10769 0.721702 0.467358
upperback 4.00037 0.954238 2.08303
thorax 1.77935 0.461406 1.85378
lowerneck -11.2938 -1.25115 -1.71116
upperneck 34.9423 -1.9438 1.7614
head 13.7537 -0.804776 0.728678
rclavicle 9.93923e-017 -4.37326e-015
rhumerus -11.2316 -12.287 -85.0638
rradius 32.0596
rwrist 29.5789
rhand -25.6907 -26.9126
rfingers 7.12502
rthumb 0.844463 -56.8907
lclavicle 9.93923e-017 -4.37326e-015
lhumerus -22.1013 18.3982 80.6869
lradius 7.21012
lwrist -7.79811
lhand -27.7224 -7.69178
lfingers 7.12502
lthumb -1.11784 22.285
rfemur -22.7034 -2.6581 22.2564
rtibia 31.496
rfoot -10.1161 -0.827241
rtoes 20.6098
lfemur -22.7351 3.69379 -15.6907
ltibia 31.2269
lfoot -8.85785 2.29059
ltoes -4.69466
361
root 0.183553 17.3433 4.79024 2.32326 4.53198 -2.2281
lowerback 3.98483 0.702889 0.542187
upperback 3.9515 0.929916 2.08024
thorax 1.79943 0.451126 1.81068
lowerneck -11.2882 -1.28782 -1.73526
upperneck 34.9745 -2.00626 1.80229
head 13.7693 -0.829304 0.740401
rclavicle 1.00386e-014 1.15295e-014
rhumerus -11.2239 -12.5831 -85.1401
rradius 31.8035
rwrist 29.7215
rhand -25.6448 -26.9493
rfingers 7.12502
rthumb 0.888834 -56.9272
lclavicle 1.00386e-014 1.15295e-014
lhumerus -22.3423 18.3149 80.6227
lradius 7.2256
lwrist -7.91822
lhand -27.6119 -7.72836
lfingers 7.12502
lthumb -1.01112 22.249
rfemur -22.4076 -2.62188 22.2457
rtibia 31.2051
rfoot -10.1323 -0.957288
rtoes 20.6744
lfemur -22.4682 3.70617 -15.6877
ltibia 30.932
lfoot -8.9034 2.22463
ltoes -4.80801
362
root 0.18714 17.3568 4.82614 2.33703 4.64047 -2.23178
lowerback 3.86364 0.684036 0.611229
upperback 3.89959 0.905324 2.07718
thorax 1.81532 0.44058 1.77044
lowerneck -11.2639 -1.32378 -1.75741
upperneck 34.9834 -2.06582 1.8367
head 13.7702 -0.853376 0.749546
rclavicle 6.95746e-016 8.34896e-015
rhumerus -11.2503 -12.8627 -85.2114
rradius 31.5632
rwrist 29.858
rhand -25.6116 -26.9678
rfingers 7.12502
rthumb 0.9209 -56.9456
lclavicle 6.95746e-016 8.34896e-015
lhumerus -22.5923 18.2367 80.5666
lradius 7.28911
lwrist -8.00276
lhand -27.4774 -7.73009
lfingers 7.12502
lthumb -0.881145 22.2478
rfemur -22.1042 -2.57527 22.2231
rtibia 30.9011
rfoot -10.145 -1.08693
rtoes 20.8133
lfemur -22.1952 3.71174 -15.6932
ltibia 30.6264
lfoot -8.93722 2.16198
ltoes -4.90136
363
root 0.191128 17.3704 4.86128 2.35299 4.74329 -2.24551
lowerback 3.74758 0.666516 0.686097
upperback 3.84561 0.882557 2.07899
thorax 1.82616 0.431012 1.73175
lowerneck -11.2361 -1.35763 -1.77739
upperneck 34.9753 -2.12082 1.86587
head 13.7624 -0.875984 0.75678
rclavicle -1.97791e-014 -3.57812e-014
rhumerus -11.3114 -13.1085 -85.2773
rradius 31.3503
rwrist 29.9783
rhand -25.5959 -26.9765
rfingers 7.12502
rthumb 0.936053 -56.9542
lclavicle -1.97791e-014 -3.57812e-014
lhumerus -22.8513 18.1647 80.5179
lradius 7.40233
lwrist -8.03076
lhand -27.3104 -7.67561
lfingers 7.12502
lthumb -0.719916 22.3029
rfemur -21.8023 -2.51515 22.21
rtibia 30.5859
rfoot -10.1496 -1.22429
rtoes 20.9479
lfemur -21.924 3.72114 -15.6885
ltibia 30.3124
lfoot -8.96032 2.09609
ltoes -4.96814
